<?xml version="1.0" encoding="utf-8"?>
<!-- Generator: Adobe Illustrator 18.0.0, SVG Export Plug-In . SVG Version: 6.00 Build 0)  -->
<!DOCTYPE svg PUBLIC "-//W3C//DTD SVG 1.1//EN" "http://www.w3.org/Graphics/SVG/1.1/DTD/svg11.dtd">
<svg version="1.1" id="Capa_1" xmlns="http://www.w3.org/2000/svg" xmlns:xlink="http://www.w3.org/1999/xlink" x="0px" y="0px"
	 viewBox="0 0 1080 1920" enable-background="new 0 0 1080 1920" xml:space="preserve">
<g>
	<g>
		
			<ellipse fill="#CCCCCC" stroke="#000000" stroke-width="16.0174" stroke-miterlimit="10" cx="504.3" cy="590.6" rx="126.6" ry="118.8"/>
		<ellipse fill="#F2F2F2" cx="520.2" cy="574.2" rx="96.4" ry="87.2"/>
	</g>
	<g>
		<ellipse cx="496.8" cy="499.2" rx="146.8" ry="48.5"/>
		<rect x="432.1" y="373.7" width="129.4" height="111.1"/>
		<ellipse cx="496.8" cy="376.3" rx="64.7" ry="21.4"/>
	</g>
	<g>
		<circle fill="#1A1A1A" stroke="#000000" stroke-width="2.7299" stroke-miterlimit="10" cx="472" cy="581.4" r="15.8"/>
		<g>
			<circle fill="#4D4D4D" cx="472" cy="581.4" r="11.3"/>
			<g>
				<circle fill="#FFFFFF" cx="467.9" cy="585.5" r="2.6"/>
				<circle fill="#FFFFFF" cx="476.4" cy="585.5" r="2.6"/>
				<circle fill="#FFFFFF" cx="467.9" cy="577" r="2.6"/>
				<circle fill="#FFFFFF" cx="476.4" cy="577" r="2.6"/>
			</g>
		</g>
	</g>
	<g>
		<circle fill="#1A1A1A" stroke="#000000" stroke-width="2.7299" stroke-miterlimit="10" cx="564" cy="581.4" r="15.8"/>
		<g>
			<circle fill="#4D4D4D" cx="564" cy="581.4" r="11.3"/>
			<g>
				<circle fill="#FFFFFF" cx="559.9" cy="585.5" r="2.6"/>
				<circle fill="#FFFFFF" cx="568.4" cy="585.5" r="2.6"/>
				<circle fill="#FFFFFF" cx="559.9" cy="577" r="2.6"/>
				<circle fill="#FFFFFF" cx="568.4" cy="577" r="2.6"/>
			</g>
		</g>
	</g>
	<g>
		
			<path fill="#F15A24" stroke="#000000" stroke-width="4" stroke-linecap="round" stroke-linejoin="round" stroke-miterlimit="10" d="
			M528.7,590.6l146.1,33H528.7c0,0-24.4,0-24.4-16.5S528.7,590.6,528.7,590.6z"/>
		<path fill="#F7931E" d="M527.4,592.3L627.8,615H527.4c0,0-16.8,0-16.8-11.3C510.6,592.3,527.4,592.3,527.4,592.3z"/>
	</g>
</g>
</svg>
