<?xml version="1.0" encoding="utf-8"?>
<!-- Generator: Adobe Illustrator 18.0.0, SVG Export Plug-In . SVG Version: 6.00 Build 0)  -->
<!DOCTYPE svg PUBLIC "-//W3C//DTD SVG 1.1//EN" "http://www.w3.org/Graphics/SVG/1.1/DTD/svg11.dtd">
<svg version="1.1" id="Capa_1" xmlns="http://www.w3.org/2000/svg" xmlns:xlink="http://www.w3.org/1999/xlink" x="0px" y="0px"
	 viewBox="0 0 1080 1920" enable-background="new 0 0 1080 1920" xml:space="preserve">
<rect y="-11.6" fill="#CFC6C1" width="1080" height="1783.7"/>
<rect x="229.6" y="534.5" fill="#A9A19A" stroke="#000000" stroke-width="5" stroke-miterlimit="10" width="620.7" height="1237.6"/>
<rect x="255" y="561.5" fill="#A9A19A" stroke="#000000" stroke-width="5" stroke-miterlimit="10" width="570.1" height="1210.6"/>
<rect x="0" y="-11.6" fill="#CFC6C1" stroke="#000000" stroke-width="8.2261" stroke-miterlimit="10" width="136" height="1881.2"/>
<g>
	<path stroke="#000000" stroke-width="5" stroke-miterlimit="10" d="M750,1266L750,1266c-6.5,0-11.8-5.3-11.8-11.8v-77
		c0-6.5,5.3-11.7,11.8-11.7l0,0c6.5,0,11.8,5.3,11.8,11.7v77C761.7,1260.7,756.4,1266,750,1266z"/>
	<path fill="#1A1A1A" stroke="#000000" stroke-miterlimit="10" d="M680.9,1184.5l-2.8-2.3c0,0-4.8-1.6-6.2,1.5c-1.3,3.1,0,7.8,0,7.8
		s0.6,3.8,4.2,4.2s70.8,2,70.8,2s6.5,0,6.8-3.5c0.6-6.4-3.3-7.3-3.3-7.3L680.9,1184.5z"/>
	<path fill="#403D2C" d="M755.4,1230.4c0-3-2.4-5.4-5.4-5.4s-5.4,2.4-5.4,5.4c0,2,1.1,3.7,2.6,4.6v10.2c0,1.5,1.2,2.8,2.8,2.8
		s2.8-1.2,2.8-2.8V1235C754.3,1234.1,755.4,1232.4,755.4,1230.4z"/>
</g>
<rect x="-1.2" y="1772.1" fill="#80A6A2" stroke="#000000" stroke-width="9" stroke-miterlimit="10" width="1082.4" height="157.5"/>
</svg>
