<?xml version="1.0" encoding="utf-8"?>
<!-- Generator: Adobe Illustrator 18.0.0, SVG Export Plug-In . SVG Version: 6.00 Build 0)  -->
<!DOCTYPE svg PUBLIC "-//W3C//DTD SVG 1.1//EN" "http://www.w3.org/Graphics/SVG/1.1/DTD/svg11.dtd">
<svg version="1.1" id="Capa_1" xmlns="http://www.w3.org/2000/svg" xmlns:xlink="http://www.w3.org/1999/xlink" x="0px" y="0px"
	 viewBox="0 0 1080 1920" enable-background="new 0 0 1080 1920" xml:space="preserve">
<g>
	<g>
		<g>
			
				<ellipse fill="#CCCCCC" stroke="#000000" stroke-width="30.705" stroke-miterlimit="10" cx="423.3" cy="1672.3" rx="242.6" ry="227.7"/>
			<ellipse fill="#F2F2F2" cx="453.7" cy="1640.7" rx="184.8" ry="167.2"/>
		</g>
		<g>
			
				<ellipse transform="matrix(0.9999 1.304630e-002 -1.304630e-002 0.9999 18.8164 -5.3995)" fill="#CCCCCC" stroke="#000000" stroke-width="23.151" stroke-miterlimit="10" cx="423.3" cy="1439.5" rx="191.8" ry="163.7"/>
			
				<ellipse transform="matrix(0.9999 1.304630e-002 -1.304630e-002 0.9999 18.5265 -5.7196)" fill="#F2F2F2" cx="447.7" cy="1417.1" rx="146.1" ry="120.2"/>
		</g>
		<g>
			
				<ellipse fill="#CCCCCC" stroke="#000000" stroke-width="16.0174" stroke-miterlimit="10" cx="423.3" cy="1235.2" rx="126.6" ry="118.8"/>
			<ellipse fill="#F2F2F2" cx="439.2" cy="1218.8" rx="96.4" ry="87.2"/>
		</g>
	</g>
	<g>
		<ellipse cx="415.8" cy="1143.8" rx="146.8" ry="48.5"/>
		<rect x="351" y="1018.3" width="129.4" height="111.1"/>
		<ellipse cx="415.8" cy="1020.9" rx="64.7" ry="21.4"/>
	</g>
	<g>
		<circle fill="#1A1A1A" stroke="#000000" stroke-width="2.7299" stroke-miterlimit="10" cx="391" cy="1226" r="15.8"/>
		<g>
			<circle fill="#4D4D4D" cx="391" cy="1226" r="11.3"/>
			<g>
				<circle fill="#FFFFFF" cx="386.9" cy="1230.1" r="2.6"/>
				<circle fill="#FFFFFF" cx="395.4" cy="1230.1" r="2.6"/>
				<circle fill="#FFFFFF" cx="386.9" cy="1221.6" r="2.6"/>
				<circle fill="#FFFFFF" cx="395.4" cy="1221.6" r="2.6"/>
			</g>
		</g>
	</g>
	<g>
		<circle fill="#1A1A1A" stroke="#000000" stroke-width="2.7299" stroke-miterlimit="10" cx="483" cy="1226" r="15.8"/>
		<g>
			<circle fill="#4D4D4D" cx="483" cy="1226" r="11.3"/>
			<g>
				<circle fill="#FFFFFF" cx="478.9" cy="1230.1" r="2.6"/>
				<circle fill="#FFFFFF" cx="487.4" cy="1230.1" r="2.6"/>
				<circle fill="#FFFFFF" cx="478.9" cy="1221.6" r="2.6"/>
				<circle fill="#FFFFFF" cx="487.4" cy="1221.6" r="2.6"/>
			</g>
		</g>
	</g>
	<g>
		
			<path fill="#F15A24" stroke="#000000" stroke-width="4" stroke-linecap="round" stroke-linejoin="round" stroke-miterlimit="10" d="
			M447.7,1235.2l146.1,33H447.7c0,0-24.4,0-24.4-16.5C423.3,1235.2,447.7,1235.2,447.7,1235.2z"/>
		<path fill="#F7931E" d="M446.4,1236.9l100.4,22.7H446.4c0,0-16.8,0-16.8-11.3S446.4,1236.9,446.4,1236.9z"/>
	</g>
</g>
</svg>
