<?xml version="1.0" encoding="utf-8"?>
<!-- Generator: Adobe Illustrator 18.0.0, SVG Export Plug-In . SVG Version: 6.00 Build 0)  -->
<!DOCTYPE svg PUBLIC "-//W3C//DTD SVG 1.1//EN" "http://www.w3.org/Graphics/SVG/1.1/DTD/svg11.dtd">
<svg version="1.1" id="Capa_1" xmlns="http://www.w3.org/2000/svg" xmlns:xlink="http://www.w3.org/1999/xlink" x="0px" y="0px"
	 viewBox="0 0 1080 1920" enable-background="new 0 0 1080 1920" xml:space="preserve">
<path fill="#CFC6C1" stroke="#000000" stroke-width="8.2261" stroke-miterlimit="10" d="M598.5,1140.4h-106c-17.6,0-32-14.4-32-32
	v-104c0-17.6,14.4-32,32-32h106c17.6,0,32,14.4,32,32v104C630.5,1126,616.1,1140.4,598.5,1140.4z"/>
<path fill="#998675" d="M593.4,1120.7h-72.7c-17.6,0-32-14.4-32-32v-64.5c0-17.6,14.4-32,32-32h72.7c17.6,0,32,14.4,32,32v64.5
	C625.4,1106.3,611,1120.7,593.4,1120.7z"/>
<g>
	<ellipse fill="#39B54A" stroke="#006837" stroke-width="8.2261" stroke-miterlimit="10" cx="470.9" cy="948.9" rx="65" ry="61"/>
	<ellipse fill="#009245" cx="479" cy="940.4" rx="49.5" ry="44.8"/>
</g>
<g>
	<ellipse fill="#39B54A" stroke="#006837" stroke-width="8.2261" stroke-miterlimit="10" cx="532.9" cy="985.4" rx="65" ry="61"/>
	<ellipse fill="#009245" cx="541" cy="977" rx="49.5" ry="44.8"/>
</g>
<g>
	<ellipse fill="#39B54A" stroke="#006837" stroke-width="8.2261" stroke-miterlimit="10" cx="610.5" cy="969.2" rx="65" ry="61"/>
	<ellipse fill="#009245" cx="618.7" cy="960.8" rx="49.5" ry="44.8"/>
</g>
<g>
	<ellipse fill="#39B54A" stroke="#006837" stroke-width="8.2261" stroke-miterlimit="10" cx="569.2" cy="899.8" rx="65" ry="61"/>
	<ellipse fill="#009245" cx="577.4" cy="891.3" rx="49.5" ry="44.8"/>
</g>
<g>
	<ellipse fill="#39B54A" stroke="#006837" stroke-width="8.2261" stroke-miterlimit="10" cx="487.9" cy="871.9" rx="65" ry="61"/>
	<ellipse fill="#009245" cx="496" cy="863.4" rx="49.5" ry="44.8"/>
</g>
<g>
	<ellipse fill="#39B54A" stroke="#006837" stroke-width="8.2261" stroke-miterlimit="10" cx="610.5" cy="871.9" rx="65" ry="61"/>
	<ellipse fill="#009245" cx="618.7" cy="863.4" rx="49.5" ry="44.8"/>
</g>
<g>
	<ellipse fill="#39B54A" stroke="#006837" stroke-width="8.2261" stroke-miterlimit="10" cx="545.5" cy="936.1" rx="65" ry="61"/>
	<ellipse fill="#009245" cx="553.7" cy="927.6" rx="49.5" ry="44.8"/>
</g>
<g>
	<ellipse fill="#39B54A" stroke="#006837" stroke-width="8.2261" stroke-miterlimit="10" cx="532.9" cy="838.8" rx="65" ry="61"/>
	<ellipse fill="#009245" cx="541" cy="830.3" rx="49.5" ry="44.8"/>
</g>
<g>
	<ellipse fill="#0071BC" stroke="#0000FF" stroke-width="3.2904" stroke-miterlimit="10" cx="603.2" cy="936.6" rx="26" ry="24.4"/>
	<ellipse fill="#0000FF" cx="606.5" cy="933.2" rx="19.8" ry="17.9"/>
</g>
<g>
	
		<ellipse fill="#FF0000" stroke="#C1272D" stroke-width="3.7334" stroke-miterlimit="10" cx="480.5" cy="863.4" rx="29.5" ry="27.7"/>
	<ellipse fill="#C1272D" cx="484.2" cy="859.6" rx="22.5" ry="20.3"/>
</g>
<g>
	
		<ellipse fill="#FFFF00" stroke="#C9961A" stroke-width="3.7334" stroke-miterlimit="10" cx="488.7" cy="940.4" rx="29.5" ry="27.7"/>
	<ellipse fill="#FCCB00" cx="492.4" cy="936.6" rx="22.5" ry="20.3"/>
</g>
<g>
	
		<ellipse fill="#29ABE2" stroke="#0071BC" stroke-width="2.5547" stroke-miterlimit="10" cx="542.2" cy="818.6" rx="20.2" ry="18.9"/>
	<ellipse fill="#0071BC" cx="544.7" cy="816" rx="15.4" ry="13.9"/>
</g>
<g>
	<ellipse fill="#7F47DD" stroke="#662D91" stroke-width="2.4046" stroke-miterlimit="10" cx="603.2" cy="865.1" rx="19" ry="17.8"/>
	<ellipse fill="#662D91" cx="605.6" cy="862.7" rx="14.5" ry="13.1"/>
</g>
<g>
	<ellipse fill="#ED1E79" stroke="#D4145A" stroke-width="2.9549" stroke-miterlimit="10" cx="557" cy="994.5" rx="23.3" ry="21.9"/>
	<ellipse fill="#D4145A" cx="560" cy="991.4" rx="17.8" ry="16.1"/>
</g>
</svg>
